<svg xmlns="http://www.w3.org/2000/svg" xmlns:xlink="http://www.w3.org/1999/xlink" width="1200" zoomAndPan="magnify" viewBox="0 0 900 899.99999" height="1200" preserveAspectRatio="xMidYMid meet" version="1.0"><path fill="#ffffff" d="M 450 0.269531 C 334.796875 0.269531 219.457031 44.082031 131.699219 131.835938 C -43.675781 307.347656 -43.675781 592.789062 131.835938 768.164062 C 307.347656 943.675781 592.789062 943.675781 768.164062 768.164062 C 943.675781 592.652344 943.675781 307.210938 768.164062 131.699219 C 680.410156 44.082031 565.203125 0.136719 450 0.269531 Z M 450 68.960938 C 547.355469 68.960938 644.710938 106.28125 719.214844 180.785156 C 868.222656 329.792969 868.222656 570.207031 719.214844 719.214844 C 570.207031 868.222656 329.792969 868.222656 180.785156 719.214844 C 31.777344 570.207031 31.777344 329.792969 180.785156 180.785156 C 255.289062 106.28125 352.644531 69.09375 450 68.960938 Z M 425.527344 278.679688 L 498.949219 352.101562 L 254.207031 596.84375 L 303.15625 645.792969 L 547.898438 401.050781 L 621.320312 474.472656 L 621.320312 278.679688 Z M 425.527344 278.679688 " fill-opacity="1" fill-rule="nonzero"/></svg>