<svg xmlns="http://www.w3.org/2000/svg" xmlns:xlink="http://www.w3.org/1999/xlink" width="1200" zoomAndPan="magnify" viewBox="0 0 900 899.99999" height="1200" preserveAspectRatio="xMidYMid meet" version="1.0"><path fill="#ffffff" d="M 450.074219 0 C 201.898438 0 0 201.863281 0 450 C 0 698.136719 201.863281 900 450 900 C 517.050781 900 580.351562 884.617188 637.5 858.179688 L 637.5 773.730469 C 582.300781 805.980469 518.476562 825 450 825 C 243.226562 825 75 656.773438 75 450 C 75 243.226562 243.226562 75 450 75 C 489.039062 75 526.40625 81.621094 561.765625 92.796875 C 573.65625 69.171875 588.289062 47.460938 605.199219 28.636719 C 556.75 10.675781 504.75 0 450.074219 0 Z M 750 34.203125 C 700.386719 34.203125 662.808594 68.730469 638.453125 108.691406 C 614.09375 148.652344 600 197.734375 600 246.753906 C 600 295.769531 615.570312 337.761719 643.578125 366.503906 C 662.464844 385.882812 686.863281 396.113281 712.5 402.320312 L 712.5 862.5 L 787.5 862.5 L 787.5 402.320312 C 813.136719 396.113281 837.535156 385.882812 856.421875 366.503906 C 884.429688 337.761719 900 295.769531 900 246.753906 C 900 197.734375 885.90625 148.652344 861.546875 108.691406 C 837.191406 68.730469 799.609375 34.203125 750 34.203125 Z M 750 109.203125 C 762.527344 109.203125 781.175781 120.890625 797.535156 147.730469 C 813.894531 174.566406 825 212.933594 825 246.753906 C 825 280.570312 815.371094 301.09375 802.660156 314.136719 C 789.953125 327.175781 772.589844 334.203125 750 334.203125 C 727.410156 334.203125 710.046875 327.175781 697.339844 314.136719 C 684.628906 301.09375 675 280.570312 675 246.753906 C 675 212.933594 686.105469 174.566406 702.464844 147.730469 C 718.824219 120.890625 737.472656 109.203125 750 109.203125 Z M 450 150 C 284.585938 150 150 284.585938 150 450 C 150 615.414062 284.585938 750 450 750 L 450 675 C 325.914062 675 225 574.085938 225 450 C 225 325.914062 325.914062 225 450 225 C 476.476562 225 501.777344 229.855469 525.367188 238.257812 C 526.042969 212.945312 529.539062 187.457031 535.839844 162.671875 C 508.613281 154.535156 479.851562 150 450 150 Z M 450 150 " fill-opacity="1" fill-rule="nonzero"/></svg>